<?xml version="1.0" encoding="UTF-8" standalone="no"?>
<!-- Created with Inkscape (http://www.inkscape.org/) -->

<svg
   xmlns:dc="http://purl.org/dc/elements/1.1/"
   xmlns:cc="http://creativecommons.org/ns#"
   xmlns:rdf="http://www.w3.org/1999/02/22-rdf-syntax-ns#"
   xmlns:svg="http://www.w3.org/2000/svg"
   xmlns="http://www.w3.org/2000/svg"
   version="1.1"
   width="210mm"
   height="297mm"
   id="svg2">
  <defs
     id="defs4" />
  <metadata
     id="metadata7">
    <rdf:RDF>
      <cc:Work
         rdf:about="">
        <dc:format>image/svg+xml</dc:format>
        <dc:type
           rdf:resource="http://purl.org/dc/dcmitype/StillImage" />
        <dc:title></dc:title>
      </cc:Work>
    </rdf:RDF>
  </metadata>
  <g
     id="layer1">
    <g
       id="text2985"
       style="font-size:116.26065826px;font-style:normal;font-weight:normal;line-height:125%;letter-spacing:0px;word-spacing:0px;fill:#000000;fill-opacity:1;stroke:none;font-family:Sans">
      <path
         d="m -226.03568,-7.6201002 0,65.9075402 13.85137,0 c 11.69414,1e-5 20.24716,-2.64916 25.65909,-7.94751 5.44965,-5.29831 8.17451,-13.66211 8.17458,-25.09141 -7e-5,-11.35353 -2.72493,-19.6605602 -8.17458,-24.92111016 -5.41193,-5.29826004 -13.96495,-7.94743004 -25.65909,-7.94751004 l -13.85137,0 m -11.46711,-9.4234698 23.55867,0 c 16.4248,9e-5 28.4785,3.42508 36.16116,10.2749898 7.68251,6.81222004 11.5238,17.4845702 11.52388,32.0171002 -8e-5,14.6083 -3.8603,25.33742 -11.58065,32.1874 -7.7205,6.84999 -19.75528,10.27499 -36.10439,10.27499 l -23.55867,0 0,-84.75448"
         id="path2990" />
      <path
         d="m -148.03659,-17.04357 11.46712,0 0,84.75448 -11.46712,0 0,-84.75448"
         id="path2992" />
      <path
         d="m -113.74877,-17.04357 53.588891,0 0,9.6505498 -42.121781,0 0,25.0914102 40.361981,0 0,9.65054 -40.361981,0 0,30.71143 43.143601,0 0,9.65055 -54.610711,0 0,-84.75448"
         id="path2994" />
      <path
         d="m 17.612151,55.61934 0,-22.76392 -18.7333999,0 0,-9.42347 30.0869799,0 0,36.38822 c -4.42797,3.14116 -9.31,5.52541 -14.64612,7.15275 -5.3362399,1.5895 -11.0319499,2.38425 -17.0871299,2.38426 -13.2458801,-1e-5 -23.6154701,-3.86022 -31.1088101,-11.58066 -7.45553,-7.75826 -11.18329,-18.54415 -11.18328,-32.3577 -10e-6,-13.85131 3.72775,-24.63720016 11.18328,-32.3577002 7.49334,-7.7581998 17.86293,-11.6373298 31.1088101,-11.6374198 5.52535,9e-5 10.76692,0.6813 15.7246999,2.04364 4.99551,1.36252 9.59371,3.36831 13.7946,6.0174 l 0,12.2050998 c -4.23874,-3.59523 -8.74232,-6.30116 -13.51076,-8.11781 -4.7685599,-1.8165 -9.7830499,-2.72478 -15.0434899,-2.72486 -10.3696401,8e-5 -18.1657601,2.89524 -23.3883701,8.68549004 -5.18483,5.79038996 -7.77722,14.41910016 -7.77721,25.88616016 -10e-6,11.4293 2.59238,20.03909 7.77721,25.8294 5.22261,5.79033 13.01873,8.68549 23.3883701,8.68548 4.04939,10e-6 7.66361,-0.34059 10.84267,-1.02182 3.1789399,-0.71905 6.0362499,-1.81656 8.5719499,-3.29254"
         id="path2996" />
      <path
         d="m 84.371211,-9.2663602 c -8.326,7e-5 -14.94891,3.10338 -19.86877,9.30993004 -4.88206,6.20668996 -7.32307,14.66509016 -7.32306,25.37525016 -10e-6,10.6724 2.441,19.11188 7.32306,25.31849 4.91986,6.20663 11.54277,9.30994 19.86877,9.30993 8.3259,10e-6 14.91097,-3.1033 19.755229,-9.30993 4.88197,-6.20661 7.32298,-14.64609 7.32306,-25.31849 -8e-5,-10.71016 -2.44109,-19.1685602 -7.32306,-25.37525016 C 99.282181,-6.1629802 92.697111,-9.2662902 84.371211,-9.2663602 m 0,-9.3099398 c 11.88335,9e-5 21.382509,3.99276 28.497479,11.9780298 7.11483,7.94757 10.67228,18.6199202 10.67237,32.0170902 -9e-5,13.35941 -3.55754,24.03176 -10.67237,32.0171 -7.11497,7.94751 -16.614129,11.92125 -28.497479,11.92126 -11.92129,-1e-5 -21.45829,-3.97375 -28.61102,-11.92126 -7.11492,-7.94749 -10.67237,-18.61984 -10.67237,-32.0171 0,-13.39717 3.55745,-24.0695202 10.67237,-32.0170902 7.15273,-7.9852698 16.68973,-11.9779398 28.61102,-11.9780298"
         id="path2998" />
      <path
         d="m 181.67136,27.97338 c 2.45989,0.83263 4.84414,2.61136 7.15276,5.33618 2.34634,2.72489 4.69275,6.47157 7.03922,11.24004 l 11.63741,23.16131 -12.31863,0 -10.84267,-21.74211 c -2.8006,-5.67676 -5.52546,-9.44236 -8.17458,-11.29681 -2.61136,-1.85438 -6.18774,-2.78159 -10.72913,-2.78163 l -12.48894,0 0,35.82055 -11.46711,0 0,-84.75448 25.88616,0 c 9.68834,9e-5 16.91678,2.02481 21.68534,6.07417 4.76844,4.0495198 7.15269,10.16151984 7.15275,18.3360298 -6e-5,5.3362402 -1.24896,9.7641302 -3.74668,13.2836902 -2.46,3.51965 -6.0553,5.96067 -10.7859,7.32306 m -28.72456,-35.5934802 0,30.0869902 14.41905,0 c 5.52537,5e-5 9.68834,-1.26777 12.48894,-3.80345 2.83834,-2.57342 4.25754,-6.33902 4.25759,-11.2968102 -5e-5,-4.95766 -1.41925,-8.68542 -4.25759,-11.18328 -2.8006,-2.53556 -6.96357,-3.80337 -12.48894,-3.80345 l -14.41905,0"
         id="path3000" />
      <path
         d="m 203.18642,-17.04357 12.31863,0 23.50191,34.85549 23.33161,-34.85549 12.31863,0 -29.97345,44.3925 0,40.36198 -11.52388,0 0,-40.36198 -29.97345,-44.3925"
         id="path3002" />
      <path
         d="m 336.7045,-14.26194 0,11.1832798 c -4.35226,-2.08142 -8.45847,-3.63307 -12.31863,-4.65497 -3.86027,-1.02175 -7.58802,-1.53266 -11.18328,-1.53273 -6.2445,7e-5 -11.06977,1.21112 -14.47582,3.63314 -3.36825,2.42217 -5.05236,5.86608004 -5.05234,10.33176 -2e-5,3.74674 1.11642,6.5851302 3.34931,8.5151802 2.27069,1.89232 6.5472,3.42505 12.82954,4.5982 l 6.92569,1.4192 c 8.55298,1.62739 14.85421,4.50363 18.90371,8.62872 4.08722,4.08733 6.13086,9.57488 6.13093,16.46269 -7e-5,8.21244 -2.76277,14.43798 -8.28811,18.67664 -5.48762,4.23867 -13.54865,6.358 -24.18313,6.35801 -4.01163,-1e-5 -8.28814,-0.45415 -12.82954,-1.36243 -4.50361,-0.90829 -9.17749,-2.25179 -14.02167,-4.03052 l 0,-11.80773 c 4.65495,2.61134 9.2153,4.57929 13.68106,5.90386 4.46571,1.3246 8.85576,1.98689 13.17015,1.98688 6.54719,10e-6 11.59953,-1.28673 15.15703,-3.86022 3.5574,-2.57346 5.33613,-6.24445 5.33618,-11.01297 -5e-5,-4.16295 -1.28679,-7.41764 -3.86021,-9.76408 -2.53569,-2.34637 -6.71758,-4.10617 -12.54571,-5.27941 l -6.98245,-1.36243 c -8.55305,-1.703 -14.74075,-4.37109 -18.5631,-8.00428 -3.82239,-3.63309 -5.73357,-8.68543 -5.73356,-15.1570302 -1e-5,-7.49329 2.63023,-13.39714 7.89074,-17.7115798 5.29831,-4.31428 12.58352,-6.47145 21.85564,-6.47154 3.97371,9e-5 8.02315,0.35962 12.14833,1.07859 4.12508,0.71914 8.34482,1.79773 12.65924,3.23577"
         id="path3004" />
    </g>
  </g>
</svg>
